<mxfile host="app.diagrams.net" modified="2022-10-23T22:49:21.087Z" agent="5.0 (X11; Linux x86_64) AppleWebKit/537.36 (KHTML, like Gecko) Chrome/106.0.0.0 Safari/537.36" etag="I7FSOqE4T3wAZeNlU2ER" version="20.5.1" type="github">
  <diagram id="EQogxgOOaJ7-MavAzIGB" name="ページ1">
    <mxGraphModel dx="1422" dy="773" grid="1" gridSize="10" guides="1" tooltips="1" connect="1" arrows="1" fold="1" page="1" pageScale="1" pageWidth="827" pageHeight="1169" math="0" shadow="0">
      <root>
        <mxCell id="0" />
        <mxCell id="1" parent="0" />
        <mxCell id="5m2ri7QpMthFIvJ9T_sP-5" value="" style="rounded=0;whiteSpace=wrap;html=1;fillColor=#FFFFFF;" parent="1" vertex="1">
          <mxGeometry x="152.85" y="75" width="120" height="366" as="geometry" />
        </mxCell>
        <mxCell id="LVywCjolBayjgkQlPvWd-17" value="" style="rounded=0;whiteSpace=wrap;html=1;fillColor=#FFFFFF;" parent="1" vertex="1">
          <mxGeometry x="532.85" y="75" width="160" height="165" as="geometry" />
        </mxCell>
        <mxCell id="LVywCjolBayjgkQlPvWd-2" value="&lt;b&gt;&lt;u&gt;Web App&lt;/u&gt;&lt;/b&gt;" style="text;html=1;align=center;verticalAlign=middle;resizable=0;points=[];autosize=1;strokeColor=none;fillColor=none;" parent="1" vertex="1">
          <mxGeometry x="152.85" y="50" width="70" height="30" as="geometry" />
        </mxCell>
        <mxCell id="LVywCjolBayjgkQlPvWd-11" value="" style="aspect=fixed;html=1;points=[];align=center;image;fontSize=12;image=img/lib/azure2/identity/Users.svg;" parent="1" vertex="1">
          <mxGeometry x="37.14000000000001" y="205" width="45.71" height="50" as="geometry" />
        </mxCell>
        <mxCell id="LVywCjolBayjgkQlPvWd-12" value="&lt;b&gt;&lt;u&gt;O365 user&lt;/u&gt;&lt;/b&gt;" style="text;html=1;align=center;verticalAlign=middle;resizable=0;points=[];autosize=1;strokeColor=none;fillColor=none;" parent="1" vertex="1">
          <mxGeometry x="20" y="249" width="80" height="30" as="geometry" />
        </mxCell>
        <mxCell id="LVywCjolBayjgkQlPvWd-14" value="&lt;b&gt;&lt;u&gt;Azure AD&lt;/u&gt;&lt;/b&gt;" style="text;html=1;align=center;verticalAlign=middle;resizable=0;points=[];autosize=1;strokeColor=none;fillColor=none;" parent="1" vertex="1">
          <mxGeometry x="532.85" y="50" width="80" height="30" as="geometry" />
        </mxCell>
        <mxCell id="LVywCjolBayjgkQlPvWd-15" value="Authorization Server&lt;br&gt;(Authorization Endpoint)" style="text;html=1;align=center;verticalAlign=middle;resizable=0;points=[];autosize=1;strokeColor=none;fillColor=none;" parent="1" vertex="1">
          <mxGeometry x="537.85" y="80" width="150" height="40" as="geometry" />
        </mxCell>
        <mxCell id="LVywCjolBayjgkQlPvWd-36" value="" style="endArrow=classic;html=1;rounded=0;entryX=0.007;entryY=0.123;entryDx=0;entryDy=0;entryPerimeter=0;" parent="1" target="5m2ri7QpMthFIvJ9T_sP-5" edge="1">
          <mxGeometry width="50" height="50" relative="1" as="geometry">
            <mxPoint x="85.71000000000001" y="220" as="sourcePoint" />
            <mxPoint x="162.84999999999988" y="104.51620187422373" as="targetPoint" />
          </mxGeometry>
        </mxCell>
        <mxCell id="LVywCjolBayjgkQlPvWd-48" value="#2 Token Request w/ Client Secret" style="text;html=1;align=center;verticalAlign=middle;resizable=0;points=[];autosize=1;strokeColor=none;fillColor=none;" parent="1" vertex="1">
          <mxGeometry x="265.71" y="90" width="210" height="30" as="geometry" />
        </mxCell>
        <mxCell id="LVywCjolBayjgkQlPvWd-50" value="" style="endArrow=classic;html=1;rounded=0;exitX=1;exitY=0.75;exitDx=0;exitDy=0;entryX=0.005;entryY=0.565;entryDx=0;entryDy=0;entryPerimeter=0;" parent="1" edge="1">
          <mxGeometry width="50" height="50" relative="1" as="geometry">
            <mxPoint x="272.84999999999985" y="114.1" as="sourcePoint" />
            <mxPoint x="533.6499999999999" y="114.00000000000009" as="targetPoint" />
          </mxGeometry>
        </mxCell>
        <mxCell id="LVywCjolBayjgkQlPvWd-59" value="" style="endArrow=classic;html=1;rounded=0;entryX=1;entryY=0.75;entryDx=0;entryDy=0;exitX=-0.007;exitY=0.912;exitDx=0;exitDy=0;exitPerimeter=0;" parent="1" edge="1">
          <mxGeometry width="50" height="50" relative="1" as="geometry">
            <mxPoint x="531.73" y="160" as="sourcePoint" />
            <mxPoint x="272.84999999999985" y="160.48000000000002" as="targetPoint" />
          </mxGeometry>
        </mxCell>
        <mxCell id="LVywCjolBayjgkQlPvWd-60" value="#3 Send Access Token" style="text;html=1;align=center;verticalAlign=middle;resizable=0;points=[];autosize=1;strokeColor=none;fillColor=none;" parent="1" vertex="1">
          <mxGeometry x="392.84999999999997" y="136" width="140" height="30" as="geometry" />
        </mxCell>
        <mxCell id="LVywCjolBayjgkQlPvWd-63" value="" style="aspect=fixed;html=1;points=[];align=center;image;fontSize=12;image=img/lib/azure2/management_governance/Compliance.svg;fillColor=#FFFFFF;" parent="1" vertex="1">
          <mxGeometry x="547.8500000000001" y="139" width="28.44" height="35" as="geometry" />
        </mxCell>
        <mxCell id="LVywCjolBayjgkQlPvWd-69" value="&lt;b style=&quot;font-size: 14px;&quot;&gt;&lt;u style=&quot;font-size: 14px;&quot;&gt;Microsoft Graph API (Client Credentials Flow)&lt;/u&gt;&lt;/b&gt;" style="text;html=1;align=center;verticalAlign=middle;resizable=0;points=[];autosize=1;strokeColor=none;fillColor=none;fontSize=14;" parent="1" vertex="1">
          <mxGeometry x="246.29" y="460" width="330" height="30" as="geometry" />
        </mxCell>
        <mxCell id="5m2ri7QpMthFIvJ9T_sP-1" value="" style="rounded=0;whiteSpace=wrap;html=1;fillColor=#FFFFFF;" parent="1" vertex="1">
          <mxGeometry x="559.9900000000001" y="280" width="132.86" height="160" as="geometry" />
        </mxCell>
        <mxCell id="5m2ri7QpMthFIvJ9T_sP-2" value="&lt;b&gt;&lt;u&gt;Office365 Subscription&lt;/u&gt;&lt;/b&gt;" style="text;html=1;align=center;verticalAlign=middle;resizable=0;points=[];autosize=1;strokeColor=none;fillColor=none;" parent="1" vertex="1">
          <mxGeometry x="551.4200000000001" y="260" width="150" height="30" as="geometry" />
        </mxCell>
        <mxCell id="5m2ri7QpMthFIvJ9T_sP-3" value="" style="rounded=0;whiteSpace=wrap;html=1;fillColor=#FFFFFF;" parent="1" vertex="1">
          <mxGeometry x="405.71" y="280" width="114" height="160" as="geometry" />
        </mxCell>
        <mxCell id="5m2ri7QpMthFIvJ9T_sP-4" value="&lt;b&gt;&lt;u&gt;Microsoft Graph API&lt;/u&gt;&lt;/b&gt;" style="text;html=1;align=center;verticalAlign=middle;resizable=0;points=[];autosize=1;strokeColor=none;fillColor=none;" parent="1" vertex="1">
          <mxGeometry x="392.84999999999997" y="260" width="140" height="30" as="geometry" />
        </mxCell>
        <mxCell id="5m2ri7QpMthFIvJ9T_sP-6" value="#1 Run App" style="text;html=1;align=center;verticalAlign=middle;resizable=0;points=[];autosize=1;strokeColor=none;fillColor=none;" parent="1" vertex="1">
          <mxGeometry x="50.00000000000001" y="130" width="90" height="30" as="geometry" />
        </mxCell>
        <mxCell id="5m2ri7QpMthFIvJ9T_sP-7" value="" style="endArrow=classic;html=1;rounded=0;exitX=1;exitY=0.75;exitDx=0;exitDy=0;entryX=0;entryY=0.25;entryDx=0;entryDy=0;" parent="1" target="5m2ri7QpMthFIvJ9T_sP-3" edge="1">
          <mxGeometry width="50" height="50" relative="1" as="geometry">
            <mxPoint x="272.04999999999984" y="320.1" as="sourcePoint" />
            <mxPoint x="325.71" y="320" as="targetPoint" />
          </mxGeometry>
        </mxCell>
        <mxCell id="5m2ri7QpMthFIvJ9T_sP-8" value="#4 Access to O365&#39;s &lt;br&gt;Graph API with token" style="text;html=1;align=center;verticalAlign=middle;resizable=0;points=[];autosize=1;strokeColor=none;fillColor=none;" parent="1" vertex="1">
          <mxGeometry x="265.71" y="280" width="140" height="40" as="geometry" />
        </mxCell>
        <mxCell id="5m2ri7QpMthFIvJ9T_sP-9" value="" style="endArrow=classic;html=1;rounded=0;entryX=1;entryY=0.75;entryDx=0;entryDy=0;" parent="1" edge="1">
          <mxGeometry width="50" height="50" relative="1" as="geometry">
            <mxPoint x="405.71" y="400" as="sourcePoint" />
            <mxPoint x="272.84999999999985" y="400.48" as="targetPoint" />
          </mxGeometry>
        </mxCell>
        <mxCell id="LVywCjolBayjgkQlPvWd-45" value="" style="curved=1;endArrow=classic;html=1;rounded=0;entryX=1;entryY=0.75;entryDx=0;entryDy=0;exitX=1;exitY=0.25;exitDx=0;exitDy=0;" parent="1" source="5m2ri7QpMthFIvJ9T_sP-3" target="5m2ri7QpMthFIvJ9T_sP-3" edge="1">
          <mxGeometry width="50" height="50" relative="1" as="geometry">
            <mxPoint x="525.71" y="320" as="sourcePoint" />
            <mxPoint x="592.73" y="477.01" as="targetPoint" />
            <Array as="points">
              <mxPoint x="655.71" y="350" />
            </Array>
          </mxGeometry>
        </mxCell>
        <mxCell id="5m2ri7QpMthFIvJ9T_sP-12" value="" style="curved=1;endArrow=classic;html=1;rounded=0;exitX=1;exitY=0.25;exitDx=0;exitDy=0;" parent="1" edge="1">
          <mxGeometry width="50" height="50" relative="1" as="geometry">
            <mxPoint x="272.84999999999997" y="160" as="sourcePoint" />
            <mxPoint x="275.71" y="320" as="targetPoint" />
            <Array as="points">
              <mxPoint x="155.71" y="240" />
            </Array>
          </mxGeometry>
        </mxCell>
        <mxCell id="5m2ri7QpMthFIvJ9T_sP-11" value="" style="aspect=fixed;html=1;points=[];align=center;image;fontSize=12;image=img/lib/azure2/management_governance/Compliance.svg;fillColor=#FFFFFF;" parent="1" vertex="1">
          <mxGeometry x="198.63000000000014" y="225" width="28.44" height="35" as="geometry" />
        </mxCell>
        <mxCell id="5m2ri7QpMthFIvJ9T_sP-14" value="#5 Response (Json)" style="text;html=1;align=center;verticalAlign=middle;resizable=0;points=[];autosize=1;strokeColor=none;fillColor=none;" parent="1" vertex="1">
          <mxGeometry x="270.71" y="375" width="130" height="30" as="geometry" />
        </mxCell>
        <mxCell id="5m2ri7QpMthFIvJ9T_sP-15" value="" style="endArrow=classic;html=1;rounded=0;exitX=0.007;exitY=0.892;exitDx=0;exitDy=0;exitPerimeter=0;entryX=0.821;entryY=1.033;entryDx=0;entryDy=0;entryPerimeter=0;" parent="1" source="5m2ri7QpMthFIvJ9T_sP-5" target="LVywCjolBayjgkQlPvWd-12" edge="1">
          <mxGeometry width="50" height="50" relative="1" as="geometry">
            <mxPoint x="155.71" y="400" as="sourcePoint" />
            <mxPoint x="85.71000000000001" y="330" as="targetPoint" />
          </mxGeometry>
        </mxCell>
        <mxCell id="5m2ri7QpMthFIvJ9T_sP-16" value="User Profile&lt;br&gt;Email&lt;br&gt;Presence etc" style="text;html=1;align=center;verticalAlign=middle;resizable=0;points=[];autosize=1;strokeColor=none;fillColor=none;" parent="1" vertex="1">
          <mxGeometry x="585.71" y="330" width="90" height="60" as="geometry" />
        </mxCell>
        <mxCell id="5m2ri7QpMthFIvJ9T_sP-17" value="#6 Response&lt;br&gt;(Any format)" style="text;html=1;align=center;verticalAlign=middle;resizable=0;points=[];autosize=1;strokeColor=none;fillColor=none;" parent="1" vertex="1">
          <mxGeometry x="25.710000000000008" y="315" width="90" height="40" as="geometry" />
        </mxCell>
        <mxCell id="b-YkZ_e-AH7zEP5wvHGG-1" value="" style="aspect=fixed;html=1;points=[];align=center;image;fontSize=12;image=img/lib/azure2/identity/Groups.svg;" vertex="1" parent="1">
          <mxGeometry x="701.42" y="330" width="48.57" height="40" as="geometry" />
        </mxCell>
        <mxCell id="b-YkZ_e-AH7zEP5wvHGG-4" value="" style="aspect=fixed;html=1;points=[];align=center;image;fontSize=12;image=img/lib/azure2/app_services/App_Services.svg;" vertex="1" parent="1">
          <mxGeometry x="437.71000000000004" y="335" width="50" height="50" as="geometry" />
        </mxCell>
      </root>
    </mxGraphModel>
  </diagram>
</mxfile>
